<svg width="24" height="24" viewBox="0 0 24 24" fill="none" xmlns="http://www.w3.org/2000/svg">
<path d="M4.45511 9.33035L4.43586 9.38484C4.23269 9.87198 3.68004 10.1217 3.18151 9.9445C2.6611 9.75953 2.3875 9.19035 2.57144 8.66968L2.57167 8.66905C3.05369 7.29885 3.839 6.0181 4.92855 4.92855C8.83471 1.02239 15.1647 1.02225 19.071 4.92814C19.0712 4.92828 19.0713 4.92842 19.0714 4.92855L19.8908 5.75255L20.7453 6.61199V5.4V3C20.7453 2.44646 21.1918 2 21.7453 2C22.2989 2 22.7453 2.44646 22.7453 3V9C22.7453 9.55355 22.2989 10 21.7453 10H21.7266H15.75C15.1965 10 14.75 9.55355 14.75 9C14.75 8.44646 15.1965 8 15.75 8H18.1078H19.31L18.4624 7.14748L17.6608 6.34123L17.6598 6.3402C14.535 3.21542 9.47038 3.21525 6.34539 6.33969C5.46534 7.21489 4.84 8.24066 4.45511 9.33035ZM1.9718 14.0399L1.97905 14.0377L1.98624 14.0353C2.01755 14.0248 2.05417 14.0167 2.10577 14.0102C2.16035 14.0034 2.21464 14 2.26875 14H8.25C8.80354 14 9.25 14.4465 9.25 15C9.25 15.5535 8.80354 16 8.25 16H5.8875H4.68039L5.53395 16.8536L6.33551 17.6551L6.3402 17.6598C9.46504 20.7846 14.5298 20.7847 17.6548 17.6601C18.5346 16.7851 19.1598 15.7596 19.5447 14.6702C19.7298 14.1501 20.3031 13.877 20.8185 14.0602C21.3389 14.2452 21.6125 14.8143 21.4286 15.335L21.4285 15.3352C20.9468 16.7001 20.157 17.9812 19.0668 19.0714C15.1653 22.9729 8.83481 22.9732 4.92835 19.0712L4.92754 19.0704L4.10254 18.2501L3.25 17.4024V18.6047V21C3.25 21.5535 2.80355 22 2.25 22C1.69645 22 1.25 21.5535 1.25 21V15.0188C1.25 14.9581 1.25363 14.9091 1.26114 14.8666L1.26126 14.8666L1.26294 14.8557C1.26861 14.8188 1.27788 14.7769 1.29016 14.7275C1.33381 14.568 1.41629 14.4221 1.53949 14.2989L1.53952 14.2989L1.54394 14.2944C1.66171 14.1736 1.81041 14.0883 1.9718 14.0399Z" fill="white" stroke="black"/>
</svg>
