<svg width="24" height="27" viewBox="0 0 24 27" fill="none" xmlns="http://www.w3.org/2000/svg">
<g clip-path="url(#clip0_20_21)">
<path d="M5.0625 0C2.26758 0 0 2.26758 0 5.0625V21.9375C0 24.7324 2.26758 27 5.0625 27H20.25H21.9375C22.8709 27 23.625 26.2459 23.625 25.3125C23.625 24.3791 22.8709 23.625 21.9375 23.625V20.25C22.8709 20.25 23.625 19.4959 23.625 18.5625V1.6875C23.625 0.754102 22.8709 0 21.9375 0H20.25H5.0625ZM5.0625 20.25H18.5625V23.625H5.0625C4.1291 23.625 3.375 22.8709 3.375 21.9375C3.375 21.0041 4.1291 20.25 5.0625 20.25ZM6.75 7.59375C6.75 7.12969 7.12969 6.75 7.59375 6.75H17.7188C18.1828 6.75 18.5625 7.12969 18.5625 7.59375C18.5625 8.05781 18.1828 8.4375 17.7188 8.4375H7.59375C7.12969 8.4375 6.75 8.05781 6.75 7.59375ZM7.59375 10.125H17.7188C18.1828 10.125 18.5625 10.5047 18.5625 10.9688C18.5625 11.4328 18.1828 11.8125 17.7188 11.8125H7.59375C7.12969 11.8125 6.75 11.4328 6.75 10.9688C6.75 10.5047 7.12969 10.125 7.59375 10.125Z" fill="black"/>
</g>
<defs>
<clipPath id="clip0_20_21">
<rect width="23.625" height="27" fill="white"/>
</clipPath>
</defs>
</svg>
