<svg width="25" height="22" viewBox="0 0 25 22" fill="none" xmlns="http://www.w3.org/2000/svg">
<g clip-path="url(#clip0_125_5)">
<path d="M23.9976 10.867L23.9913 10.9226V10.9785C23.9913 11.1742 23.8138 11.3578 23.6024 11.3578H22.2135H21.2091L21.2136 12.3622L21.2439 19.2414C21.2439 19.2421 21.2439 19.2427 21.2439 19.2433C21.2438 19.31 21.2388 19.3862 21.2285 19.4779L21.2222 19.5335V19.5895V20.2812C21.2222 20.6691 20.9025 21 20.4861 21H19.7917C19.7659 21 19.7533 21 19.7425 20.9997C19.7389 20.9996 19.7366 20.9995 19.7355 20.9995L19.6581 20.9925L19.5779 20.9982C19.5582 20.9996 19.5327 21 19.4661 21H18.0556H17.0139C16.5975 21 16.2778 20.6691 16.2778 20.2812V19.25V16.5C16.2778 15.1777 15.1999 14.125 13.8889 14.125H11.1111C9.8001 14.125 8.72222 15.1777 8.72222 16.5V19.25V20.2812C8.72222 20.6691 8.40253 21 7.98611 21H6.94444H5.5599C5.53327 21 5.5011 20.9982 5.43044 20.9936L5.35636 20.9887L5.28236 20.9948C5.2546 20.9971 5.23879 20.9984 5.2247 20.9992C5.21287 21 5.20826 21 5.20822 21H4.51389C4.09747 21 3.77778 20.6691 3.77778 20.2812V15.4688L3.77782 15.4458L3.77787 15.4422L3.78212 15.4044V15.3484V12.3578V11.3578H2.78212H1.38889C1.15248 11.3578 1 11.1966 1 10.9785C1 10.8582 1.02587 10.7757 1.11837 10.6776L12.2158 1.10082L12.2417 1.07847L12.266 1.0544C12.2818 1.03879 12.2925 1.03186 12.2982 1.02859C12.3041 1.02516 12.3119 1.02147 12.3246 1.0177C12.3545 1.00882 12.4078 1 12.5174 1C12.5782 1 12.6413 1.00902 12.6957 1.02572C12.7436 1.04046 12.7725 1.05725 12.7874 1.06825L23.8574 10.7016L23.8591 10.7031C23.9551 10.7862 23.987 10.841 23.9953 10.8586C23.9965 10.8612 23.9973 10.8631 23.9978 10.8644C23.9977 10.8651 23.9977 10.8659 23.9976 10.867Z" fill="white" stroke="black" stroke-width="2"/>
</g>
<defs>
<clipPath id="clip0_125_5">
<rect width="25" height="22" fill="white"/>
</clipPath>
</defs>
</svg>
