<svg width="34" height="27" viewBox="0 0 34 27" fill="none" xmlns="http://www.w3.org/2000/svg">
<g clip-path="url(#clip0_20_8)">
<path d="M7.59375 0C8.71263 0 9.78569 0.444474 10.5769 1.23564C11.368 2.02681 11.8125 3.09987 11.8125 4.21875C11.8125 5.33763 11.368 6.41069 10.5769 7.20186C9.78569 7.99303 8.71263 8.4375 7.59375 8.4375C6.47487 8.4375 5.40181 7.99303 4.61064 7.20186C3.81947 6.41069 3.375 5.33763 3.375 4.21875C3.375 3.09987 3.81947 2.02681 4.61064 1.23564C5.40181 0.444474 6.47487 0 7.59375 0ZM27 0C28.1189 0 29.1919 0.444474 29.9831 1.23564C30.7743 2.02681 31.2187 3.09987 31.2187 4.21875C31.2187 5.33763 30.7743 6.41069 29.9831 7.20186C29.1919 7.99303 28.1189 8.4375 27 8.4375C25.8811 8.4375 24.8081 7.99303 24.0169 7.20186C23.2257 6.41069 22.7812 5.33763 22.7812 4.21875C22.7812 3.09987 23.2257 2.02681 24.0169 1.23564C24.8081 0.444474 25.8811 0 27 0ZM0 15.7518C0 12.6457 2.5207 10.125 5.62676 10.125H7.87851C8.71699 10.125 9.51328 10.3096 10.2305 10.6365C10.1619 11.0162 10.1303 11.4117 10.1303 11.8125C10.1303 13.827 11.0162 15.6357 12.4137 16.875C12.4031 16.875 12.3926 16.875 12.3768 16.875H1.12324C0.50625 16.875 0 16.3688 0 15.7518ZM21.3732 16.875C21.3627 16.875 21.3521 16.875 21.3363 16.875C22.7391 15.6357 23.6197 13.827 23.6197 11.8125C23.6197 11.4117 23.5828 11.0215 23.5195 10.6365C24.2367 10.3043 25.033 10.125 25.8715 10.125H28.1232C31.2293 10.125 33.75 12.6457 33.75 15.7518C33.75 16.374 33.2437 16.875 32.6268 16.875H21.3732ZM11.8125 11.8125C11.8125 10.4698 12.3459 9.18217 13.2953 8.23277C14.2447 7.28337 15.5323 6.75 16.875 6.75C18.2177 6.75 19.5053 7.28337 20.4547 8.23277C21.4041 9.18217 21.9375 10.4698 21.9375 11.8125C21.9375 13.1552 21.4041 14.4428 20.4547 15.3922C19.5053 16.3416 18.2177 16.875 16.875 16.875C15.5323 16.875 14.2447 16.3416 13.2953 15.3922C12.3459 14.4428 11.8125 13.1552 11.8125 11.8125ZM6.75 25.592C6.75 21.7107 9.89824 18.5625 13.7795 18.5625H19.9705C23.8518 18.5625 27 21.7107 27 25.592C27 26.3672 26.3725 27 25.592 27H8.15801C7.38281 27 6.75 26.3725 6.75 25.592Z" fill="black"/>
</g>
<defs>
<clipPath id="clip0_20_8">
<rect width="34" height="27" fill="white"/>
</clipPath>
</defs>
</svg>
