<svg width="23" height="23" viewBox="0 0 23 23" fill="none" xmlns="http://www.w3.org/2000/svg">
<path d="M7.69294 17.852C7.69294 17.9418 7.58629 18.0137 7.45181 18.0137C7.29879 18.0271 7.19214 17.9553 7.19214 17.852C7.19214 17.7621 7.29879 17.6902 7.43327 17.6902C7.57238 17.6768 7.69294 17.7486 7.69294 17.852ZM6.25081 17.6498C6.21835 17.7396 6.31109 17.843 6.4502 17.8699C6.57077 17.9148 6.70988 17.8699 6.7377 17.7801C6.76552 17.6902 6.67742 17.5869 6.53831 17.5465C6.41774 17.515 6.28327 17.56 6.25081 17.6498ZM8.3004 17.5734C8.16593 17.6049 8.07319 17.6902 8.0871 17.7936C8.10101 17.8834 8.22157 17.9418 8.36069 17.9104C8.49516 17.8789 8.5879 17.7936 8.57399 17.7037C8.56008 17.6184 8.43488 17.56 8.3004 17.5734ZM11.3516 0.359375C4.91996 0.359375 0 5.08965 0 11.3203C0 16.3021 3.23669 20.5652 7.85988 22.0656C8.45343 22.1689 8.6621 21.8141 8.6621 21.5221C8.6621 21.2436 8.64819 19.7072 8.64819 18.7639C8.64819 18.7639 5.40222 19.4377 4.72056 17.4252C4.72056 17.4252 4.19194 16.118 3.43145 15.7811C3.43145 15.7811 2.36956 15.0758 3.50564 15.0893C3.50564 15.0893 4.66028 15.1791 5.29556 16.2482C6.31109 17.9822 8.0129 17.4836 8.67601 17.1871C8.78266 16.4684 9.08407 15.9697 9.41794 15.6732C6.82581 15.3947 4.21048 15.0309 4.21048 10.7094C4.21048 9.47402 4.5629 8.8541 5.30484 8.06348C5.18427 7.77148 4.79012 6.56758 5.4254 5.01328C6.39456 4.72129 8.625 6.22617 8.625 6.22617C9.55242 5.97461 10.5494 5.84434 11.5371 5.84434C12.5248 5.84434 13.5218 5.97461 14.4492 6.22617C14.4492 6.22617 16.6796 4.7168 17.6488 5.01328C18.2841 6.57207 17.8899 7.77148 17.7694 8.06348C18.5113 8.85859 18.9657 9.47852 18.9657 10.7094C18.9657 15.0443 16.2345 15.3902 13.6423 15.6732C14.069 16.0281 14.4306 16.702 14.4306 17.7576C14.4306 19.2715 14.4167 21.1447 14.4167 21.5131C14.4167 21.8051 14.63 22.16 15.219 22.0566C19.856 20.5652 23 16.3021 23 11.3203C23 5.08965 17.7833 0.359375 11.3516 0.359375ZM4.50726 15.8529C4.44698 15.8979 4.46089 16.0012 4.53972 16.0865C4.61391 16.1584 4.72056 16.1898 4.78085 16.1314C4.84113 16.0865 4.82722 15.9832 4.74839 15.8979C4.67419 15.826 4.56754 15.7945 4.50726 15.8529ZM4.00645 15.4891C3.97399 15.5475 4.02036 15.6193 4.1131 15.6643C4.1873 15.7092 4.28004 15.6957 4.3125 15.6328C4.34496 15.5744 4.29859 15.5025 4.20585 15.4576C4.1131 15.4307 4.03891 15.4441 4.00645 15.4891ZM5.50887 17.0883C5.43468 17.1467 5.4625 17.2814 5.56915 17.3668C5.67581 17.4701 5.81028 17.4836 5.87056 17.4117C5.93085 17.3533 5.90302 17.2186 5.81028 17.1332C5.70827 17.0299 5.56915 17.0164 5.50887 17.0883ZM4.98024 16.4279C4.90605 16.4729 4.90605 16.5897 4.98024 16.693C5.05444 16.7963 5.17964 16.8412 5.23992 16.7963C5.31411 16.7379 5.31411 16.6211 5.23992 16.5178C5.175 16.4145 5.05444 16.3695 4.98024 16.4279Z" fill="white"/>
</svg>
