<svg width="24" height="23" viewBox="0 0 24 23" fill="none" xmlns="http://www.w3.org/2000/svg">
<path d="M12.0027 5.60309C8.59744 5.60309 5.85075 8.23591 5.85075 11.5C5.85075 14.7641 8.59744 17.3969 12.0027 17.3969C15.4079 17.3969 18.1546 14.7641 18.1546 11.5C18.1546 8.23591 15.4079 5.60309 12.0027 5.60309ZM12.0027 15.3338C9.80212 15.3338 8.00312 13.6145 8.00312 11.5C8.00312 9.38553 9.79677 7.66624 12.0027 7.66624C14.2086 7.66624 16.0022 9.38553 16.0022 11.5C16.0022 13.6145 14.2032 15.3338 12.0027 15.3338ZM19.8412 5.36188C19.8412 6.12658 19.1987 6.73731 18.4062 6.73731C17.6085 6.73731 16.9713 6.12144 16.9713 5.36188C16.9713 4.60231 17.6138 3.98644 18.4062 3.98644C19.1987 3.98644 19.8412 4.60231 19.8412 5.36188ZM23.9157 6.75784C23.8247 4.91537 23.3856 3.28333 21.9775 1.93869C20.5747 0.594053 18.8721 0.173212 16.9499 0.0808323C14.9689 -0.0269441 9.03112 -0.0269441 7.05008 0.0808323C5.1333 0.16808 3.43068 0.588921 2.02253 1.93356C0.614389 3.2782 0.180703 4.91024 0.0843279 6.75271C-0.0281093 8.65162 -0.0281093 14.3432 0.0843279 16.2422C0.175349 18.0846 0.614389 19.7167 2.02253 21.0613C3.43068 22.4059 5.12794 22.8268 7.05008 22.9192C9.03112 23.0269 14.9689 23.0269 16.9499 22.9192C18.8721 22.8319 20.5747 22.4111 21.9775 21.0613C23.3803 19.7167 23.8193 18.0846 23.9157 16.2422C24.0281 14.3432 24.0281 8.65676 23.9157 6.75784ZM21.3564 18.2796C20.9388 19.2856 20.1303 20.0605 19.0755 20.466C17.496 21.0664 13.7481 20.9279 12.0027 20.9279C10.2572 20.9279 6.50396 21.0613 4.92984 20.466C3.88042 20.0657 3.07195 19.2907 2.64897 18.2796C2.02253 16.7656 2.16709 13.1731 2.16709 11.5C2.16709 9.8269 2.02789 6.22922 2.64897 4.72035C3.06659 3.71444 3.87507 2.93947 4.92984 2.53403C6.50931 1.93356 10.2572 2.07213 12.0027 2.07213C13.7481 2.07213 17.5014 1.93869 19.0755 2.53403C20.1249 2.93434 20.9334 3.7093 21.3564 4.72035C21.9828 6.23435 21.8383 9.8269 21.8383 11.5C21.8383 13.1731 21.9828 16.7708 21.3564 18.2796Z" fill="white"/>
</svg>
