<svg width="33" height="32" viewBox="0 0 33 32" fill="none" xmlns="http://www.w3.org/2000/svg">
<ellipse cx="16.5" cy="16" rx="15.5" ry="15" fill="white"/>
<g clip-path="url(#clip0_170_302)">
<path d="M32 16C32 12.0218 30.367 8.20644 27.4602 5.3934C24.5533 2.58035 20.6109 1 16.5 1C12.3891 1 8.44666 2.58035 5.53985 5.3934C2.63303 8.20644 1 12.0218 1 16C1 19.9782 2.63303 23.7936 5.53985 26.6066C8.44666 29.4196 12.3891 31 16.5 31C20.6109 31 24.5533 29.4196 27.4602 26.6066C30.367 23.7936 32 19.9782 32 16ZM14.9863 8.44141C15.5555 7.89063 16.4758 7.89063 17.0389 8.44141C17.602 8.99219 17.608 9.88281 17.0389 10.4277L12.74 14.5879L23.7656 14.5938C24.5709 14.5938 25.2188 15.2207 25.2188 16C25.2188 16.7793 24.5709 17.4062 23.7656 17.4062H12.74L17.0389 21.5664C17.608 22.1172 17.608 23.0078 17.0389 23.5527C16.4697 24.0977 15.5494 24.1035 14.9863 23.5527L8.20508 16.9961C7.63594 16.4453 7.63594 15.5547 8.20508 15.0098L14.9863 8.44141Z" fill="black"/>
</g>
<defs>
<clipPath id="clip0_170_302">
<rect width="31" height="30" fill="white" transform="translate(1 1)"/>
</clipPath>
</defs>
</svg>
