<svg width="33" height="32" viewBox="0 0 33 32" fill="none" xmlns="http://www.w3.org/2000/svg">
<ellipse cx="16.5" cy="16" rx="15.5" ry="15" fill="white"/>
<g clip-path="url(#clip0_170_300)">
<path d="M1 16C1 19.9782 2.63303 23.7936 5.53985 26.6066C8.44666 29.4196 12.3891 31 16.5 31C20.6109 31 24.5533 29.4196 27.4602 26.6066C30.367 23.7936 32 19.9782 32 16C32 12.0218 30.367 8.20644 27.4602 5.3934C24.5533 2.58035 20.6109 1 16.5 1C12.3891 1 8.44666 2.58035 5.53985 5.3934C2.63303 8.20644 1 12.0218 1 16ZM18.0137 23.5586C17.4445 24.1094 16.5242 24.1094 15.9611 23.5586C15.398 23.0078 15.392 22.1172 15.9611 21.5723L20.26 17.4121L9.23438 17.4062C8.4291 17.4062 7.78125 16.7793 7.78125 16C7.78125 15.2207 8.4291 14.5938 9.23438 14.5938H20.26L15.9611 10.4336C15.392 9.88281 15.392 8.99219 15.9611 8.44727C16.5303 7.90234 17.4506 7.89648 18.0137 8.44727L24.7949 15.0039C25.3641 15.5547 25.3641 16.4453 24.7949 16.9902L18.0137 23.5586Z" fill="black"/>
</g>
<defs>
<clipPath id="clip0_170_300">
<rect width="31" height="30" fill="white" transform="translate(1 1)"/>
</clipPath>
</defs>
</svg>
